<?xml version="1.0" encoding="UTF-8"?>
<svg id="Layer_2" data-name="Layer 2" xmlns="http://www.w3.org/2000/svg" viewBox="0 0 2160 2160">
  <defs>
    <style>
      .cls-1 {
        letter-spacing: 1.04em;
      }

      .cls-2 {
        letter-spacing: .99em;
      }

      .cls-3 {
        letter-spacing: 1.03em;
      }

      .cls-4 {
        font-size: 120px;
      }

      .cls-4, .cls-5 {
        font-family: Calibri, Calibri;
      }

      .cls-6, .cls-7 {
        fill: none;
      }

      .cls-5 {
        font-size: 64px;
        letter-spacing: 1.04em;
      }

      .cls-7 {
        stroke: #000;
        stroke-miterlimit: 10;
        stroke-width: 6px;
      }

      .cls-8 {
        letter-spacing: 1.04em;
      }
    </style>
  </defs>
  <g id="Layer_2-2" data-name="Layer 2">
    <rect class="cls-6" width="2160" height="2160"/>
    <g>
      <g>
        <g>
          <g>
            <path d="M198.92,1208.39c3.65-37.66,6.15-67.81,7.48-90.44,1.99-33.7,3.99-77.31,5.98-130.83,1.49-40.96,2.25-70.28,2.25-87.96v-28.99c19.32.5,36,.74,50.04.74s31.29-.37,53.26-1.12,42.61-1.12,61.93-1.12c22.13,0,41.53,1.32,58.21,3.96,16.68,2.64,32.25,8.1,46.69,16.35,14.45,8.26,26.54,19.08,36.29,32.46,9.74,13.38,17.17,29.03,22.29,46.95,5.12,17.92,7.68,36.38,7.68,55.38s-1.98,36.63-5.95,53.89c-3.96,17.26-9.5,32.83-16.6,46.71-7.1,13.88-15.41,25.81-24.9,35.8-9.5,10-20.36,18.54-32.58,25.64-9.09,5.29-18.25,9.42-27.5,12.39-9.25,2.97-21.89,5.37-37.91,7.19-17.84,1.98-38.08,2.97-60.71,2.97l-100.1-.74c-9.42,0-24.7.25-45.84.74ZM306.05,1133.81c9.08.83,18.57,1.24,28.48,1.24,16.84,0,31.86-1.49,45.07-4.46,13.21-2.97,24.8-9.33,34.79-19.08,9.99-9.74,17.38-22.26,22.16-37.54,4.79-15.28,7.18-30.93,7.18-46.95,0-19.66-3.55-36.21-10.65-49.68-7.1-13.46-16.56-22.83-28.37-28.12-11.81-5.28-27.88-7.93-48.19-7.93-11.89,0-25.94.5-42.12,1.49l-8.34,191.04Z"/>
            <path d="M611.23,1027.52c3.14-16.35,5.12-27.63,5.95-33.82.82-6.19,2.14-15.9,3.96-29.11,47.57-10.41,88.46-15.61,122.66-15.61,19.49,0,37.34,2.19,53.53,6.57,16.19,4.38,28.83,11.44,37.92,21.19,9.09,9.75,13.63,23.71,13.63,41.87,0,9.25-1.24,30.07-3.71,62.44-2.47,32.38-4.37,74.83-5.68,127.36-16.2-.33-32.31-.5-48.34-.5s-32.06.17-49.58.5c2.25-18.17,4.75-55.67,7.5-112.49-6.26,2.97-11.17,5.12-14.71,6.44-3.55,1.32-9.77,3.3-18.67,5.95-8.9,2.64-15.86,4.88-20.89,6.69-5.03,1.82-9.39,4.13-13.1,6.94-3.71,2.81-6.35,5.7-7.91,8.67-1.56,2.97-2.35,6.28-2.35,9.91,0,5.62,2.23,10.41,6.69,14.37,4.46,3.96,11.56,5.95,21.31,5.95,3.47,0,7.19-.29,11.15-.87,3.96-.58,9.42-2.02,16.35-4.34-4.79,12.72-10.49,31.3-17.1,55.75-14.21,2.31-27.67,3.47-40.39,3.47-20.48,0-37.54-2.85-51.17-8.55-13.63-5.7-24.12-14.9-31.47-27.63-7.35-12.72-11.03-25.44-11.03-38.16,0-7.76,1.36-15.36,4.08-22.79s6.98-14.7,12.76-21.8c5.78-7.1,12.55-13.17,20.31-18.21,7.76-5.04,18.37-9.79,31.83-14.25s30.5-8.67,51.15-12.64c8.59-1.65,16.47-3.43,23.66-5.33,7.18-1.9,12.3-3.55,15.35-4.96,3.05-1.4,5.53-3.05,7.43-4.96,1.9-1.9,3.26-3.88,4.09-5.95.82-2.06,1.24-4.25,1.24-6.57,0-6.28-2.64-11.11-7.93-14.5-5.28-3.38-13.04-5.08-23.28-5.08-28.4,0-63.49,8.01-105.26,24.03Z"/>
            <path d="M894.69,1208.39l4.43-53.31,9.59-185.23,2.71-99.68c22.99.33,40.27.5,51.85.5,15.05,0,31.67-.16,49.87-.5l-5.66,76.07-9.1,187.32-1.97,74.83c-17.7-.16-33.66-.25-47.88-.25l-53.83.25Z"/>
            <path d="M1053.02,1208.39l6.92-119.43,3.96-93.41.5-40.14c18.17.33,34.2.5,48.08.5,15.7,0,30.98-.16,45.85-.5l-1.72,32.96c5.12-6.61,9.45-11.68,13.01-15.24,3.55-3.55,7.89-6.94,13-10.16s10.41-5.78,15.86-7.68c5.45-1.9,11.56-3.43,18.33-4.58,6.77-1.15,13.88-1.73,21.31-1.73,8.42,0,16.19.7,23.29,2.11,7.1,1.41,13.21,3.18,18.34,5.33,5.12,2.15,9.58,4.63,13.38,7.43,3.8,2.81,7.14,5.99,10.04,9.54,2.89,3.55,6.23,8.71,10.03,15.49,7.27-10.57,14.95-18.58,23.04-24.03,8.09-5.45,17.3-9.45,27.63-12.02,10.32-2.56,20.94-3.84,31.84-3.84,14.37,0,27.91,2.07,40.64,6.19,12.72,4.13,23.17,11.27,31.34,21.43s12.27,23.33,12.27,39.52c0,7.6-.55,19.08-1.63,34.44-1.09,15.36-2.59,41.75-4.51,79.17-1.92,37.41-2.97,63.64-3.13,78.67-15.18-.33-29.87-.5-44.05-.5-17.33,0-35.48.17-54.45.5,1.66-20.98,3.37-47.28,5.12-78.92,1.75-31.63,2.62-53.56,2.62-65.79,0-10.71-1.24-18.7-3.73-23.98-2.49-5.27-5.67-8.87-9.56-10.8-3.89-1.92-8.15-2.89-12.79-2.89-4.97,0-9.27.92-12.92,2.75-3.97,2-7.45,5.08-10.43,9.24-3.98,5.49-7.21,12.4-9.69,20.73-1.99,6.5-3.56,16.4-4.72,29.72-1.16,13.55-2.07,31.39-2.73,53.52l-1.98,66.4c-17.66-.33-33.59-.5-47.78-.5s-31.61.17-51.24.5c1.51-14.7,3.26-39.4,5.27-74.09,2.01-34.69,3.01-57.9,3.01-69.63,0-9.91-.99-17.34-2.97-22.3-1.98-4.96-4.75-8.92-8.3-11.89-3.55-2.97-8.3-4.46-14.25-4.46-6.44,0-12.06,1.9-16.85,5.7-4.79,3.8-8.88,9.25-12.27,16.35-3.39,7.1-5.78,16.89-7.19,29.36-1.41,12.48-2.69,31.51-3.84,57.11-1.16,25.61-1.9,50.22-2.23,73.84-20.01-.33-36.21-.5-48.61-.5-13.73,0-30.76.17-51.1.5Z"/>
            <path d="M1523.8,1208.39c2.3-20.15,4.02-36.75,5.17-49.8,1.15-13.05,2.26-29.73,3.33-50.05,1.07-20.32,2.01-42.78,2.83-67.4.82-24.61,1.48-53.19,1.97-85.73,21.49.33,38.68.5,51.58.5,11.73,0,28.6-.16,50.58-.5-2.84,31.22-4.89,58.64-6.14,82.26-1.25,23.62-2.04,48.65-2.38,75.08-.67,46.91-1,78.79-1,95.64-19.64-.33-36.56-.5-50.75-.5s-32.43.17-55.2.5ZM1539.41,923.7c.99-19.66,1.49-35.19,1.49-46.58,0-3.3-.08-7.76-.25-13.38,19.98.33,36.75.5,50.3.5,18.66,0,35.02-.16,49.06-.5-.5,5.12-.83,9.42-.99,12.88l-1.49,30.72c-.33,4.63-.5,10.08-.5,16.35-16.35-.33-32.05-.5-47.08-.5s-32.38.17-50.55.5Z"/>
            <path d="M1706.91,1027.52c3.14-16.35,5.12-27.63,5.95-33.82.82-6.19,2.14-15.9,3.96-29.11,47.57-10.41,88.46-15.61,122.66-15.61,19.49,0,37.34,2.19,53.53,6.57,16.19,4.38,28.83,11.44,37.92,21.19,9.09,9.75,13.63,23.71,13.63,41.87,0,9.25-1.24,30.07-3.71,62.44-2.47,32.38-4.37,74.83-5.68,127.36-16.2-.33-32.31-.5-48.34-.5s-32.06.17-49.58.5c2.25-18.17,4.75-55.67,7.5-112.49-6.26,2.97-11.17,5.12-14.71,6.44-3.55,1.32-9.77,3.3-18.67,5.95-8.9,2.64-15.86,4.88-20.89,6.69-5.03,1.82-9.39,4.13-13.1,6.94-3.71,2.81-6.35,5.7-7.91,8.67-1.56,2.97-2.35,6.28-2.35,9.91,0,5.62,2.23,10.41,6.69,14.37,4.46,3.96,11.56,5.95,21.31,5.95,3.47,0,7.19-.29,11.15-.87,3.96-.58,9.42-2.02,16.35-4.34-4.79,12.72-10.49,31.3-17.1,55.75-14.21,2.31-27.67,3.47-40.39,3.47-20.48,0-37.54-2.85-51.17-8.55-13.63-5.7-24.12-14.9-31.47-27.63-7.35-12.72-11.03-25.44-11.03-38.16,0-7.76,1.36-15.36,4.08-22.79s6.98-14.7,12.76-21.8c5.78-7.1,12.55-13.17,20.31-18.21,7.76-5.04,18.37-9.79,31.83-14.25s30.5-8.67,51.15-12.64c8.59-1.65,16.47-3.43,23.66-5.33,7.18-1.9,12.3-3.55,15.35-4.96,3.05-1.4,5.53-3.05,7.43-4.96,1.9-1.9,3.26-3.88,4.09-5.95.82-2.06,1.24-4.25,1.24-6.57,0-6.28-2.64-11.11-7.93-14.5-5.28-3.38-13.04-5.08-23.28-5.08-28.4,0-63.49,8.01-105.26,24.03Z"/>
          </g>
          <text class="cls-4" transform="translate(388.39 1337.06)"><tspan class="cls-8" x="0" y="0">HAR</tspan><tspan class="cls-3" x="582.68" y="0">D</tspan><tspan class="cls-2" x="780.12" y="0">W</tspan><tspan class="cls-1" x="1005.87" y="0">ARE</tspan></text>
        </g>
        <g>
          <text class="cls-5" transform="translate(1932.97 915.28)"><tspan x="0" y="0">R</tspan></text>
          <path d="M1950.35,930.83c-21.5,0-39-17.5-39-39s17.5-39,39-39,39,17.5,39,39-17.5,39-39,39ZM1950.35,858.83c-18.2,0-33,14.8-33,33s14.8,33,33,33,33-14.8,33-33-14.8-33-33-33Z"/>
        </g>
      </g>
      <rect class="cls-7" x="78.13" y="737.87" width="2003.74" height="684.26" rx="123.57" ry="123.57"/>
    </g>
  </g>
</svg>