<?xml version="1.0" encoding="UTF-8"?>
<svg version="1.1" xmlns="http://www.w3.org/2000/svg" width="400" height="260">
<path d="M0 0 C132 0 264 0 400 0 C400 85.8 400 171.6 400 260 C268 260 136 260 0 260 C0 174.2 0 88.4 0 0 Z " fill="#F1F8FD" transform="translate(0,0)"/>
<path d="M0 0 C2.62090671 1.72428073 4.60915745 3.45850925 6.44921875 6.0078125 C9.07829645 9.55993201 10.69691905 11.69137556 15.1171875 12.73828125 C18.07025021 12.97105208 21.03777759 13 24 13 C24 16.96 24 20.92 24 25 C24.66 25 25.32 25 26 25 C27.48046875 26.5390625 27.48046875 26.5390625 29.1875 28.625 C32.1100663 32.08787267 35.15830902 34.97510908 38.71484375 37.7734375 C39.13894531 38.17820313 39.56304687 38.58296875 40 39 C40 41 40 41 38.125 43.125 C36 45 36 45 34 45 C33.67 45.99 33.34 46.98 33 48 C31.34614767 49.34919532 29.678298 50.68133728 28 52 C24.93842889 55.28288951 24.55317175 57.82163986 24.3125 62.25 C24.209375 64.1475 24.10625 66.045 24 68 C19.71 68.33 15.42 68.66 11 69 C10.505 70.485 10.505 70.485 10 72 C9.401875 72.28875 8.80375 72.5775 8.1875 72.875 C5.29299613 74.36360199 3.94841481 76.42306429 2 79 C0.5625 80.875 0.5625 80.875 -1 82 C-5.28292551 81.83584606 -7.33562746 80.07482346 -10.25195312 77.05078125 C-10.72568359 76.53902344 -11.19941406 76.02726562 -11.6875 75.5 C-16.04441959 70.90585106 -18.18970258 68.96130328 -24.625 68.4375 C-26.39875 68.293125 -28.1725 68.14875 -30 68 C-30 63.71 -30 59.42 -30 55 C-31.32 54.34 -32.64 53.68 -34 53 C-35.55566406 51.67138672 -35.55566406 51.67138672 -37.015625 50.1796875 C-37.54414063 49.64472656 -38.07265625 49.10976562 -38.6171875 48.55859375 C-39.15601563 48.00300781 -39.69484375 47.44742188 -40.25 46.875 C-40.80429688 46.31167969 -41.35859375 45.74835938 -41.9296875 45.16796875 C-43.29104485 43.78313972 -44.64614859 42.39216796 -46 41 C-44.87994369 37.63983107 -43.62788203 36.30935087 -41 34 C-40.34 34 -39.68 34 -39 34 C-38.67 33.01 -38.34 32.02 -38 31 C-37.34 31 -36.68 31 -36 31 C-35.67 30.01 -35.34 29.02 -35 28 C-34.34 28 -33.68 28 -33 28 C-32.67 27.01 -32.34 26.02 -32 25 C-31.34 25 -30.68 25 -30 25 C-30 21.04 -30 17.08 -30 13 C-23.565 12.505 -23.565 12.505 -17 12 C-16.67 11.01 -16.34 10.02 -16 9 C-15.34 9 -14.68 9 -14 9 C-13.67 8.01 -13.34 7.02 -13 6 C-12.34 6 -11.68 6 -11 6 C-10.67 5.01 -10.34 4.02 -10 3 C-9.34 3 -8.68 3 -8 3 C-7.67 2.01 -7.34 1.02 -7 0 C-4.22339666 -1.38830167 -2.95033814 -0.89196269 0 0 Z " fill="#1E7FBB" transform="translate(203,71)"/>
<path d="M0 0 C1.8881543 -0.05510742 1.8881543 -0.05510742 3.81445312 -0.11132812 C14.19416698 -0.16057295 14.19416698 -0.16057295 18.5234375 2.6640625 C22.79372522 7.21602614 22.19119158 13.56535452 22.04516602 19.44799805 C22.0001379 21.49373496 22.02440171 23.53035451 22.05664062 25.57617188 C21.9538205 36.52380919 21.9538205 36.52380919 19.09765625 40.9765625 C14.93376925 44.85388377 9.3673644 44.3239015 3.99609375 44.17773438 C2.60153002 44.11925901 1.20699877 44.06000453 -0.1875 44 C-1.60539199 43.96485235 -3.02336753 43.93291934 -4.44140625 43.90429688 C-7.90018539 43.82751255 -11.35580845 43.70692559 -14.8125 43.5625 C-15.3075 42.0775 -15.3075 42.0775 -15.8125 40.5625 C-17.12897119 39.86312468 -18.46272151 39.19520867 -19.8125 38.5625 C-22.08446789 34.01856423 -21.04265478 27.73859176 -21.0625 22.75 C-21.083125 21.46544922 -21.10375 20.18089844 -21.125 18.85742188 C-21.13015625 17.61927734 -21.1353125 16.38113281 -21.140625 15.10546875 C-21.1499707 13.97133545 -21.15931641 12.83720215 -21.16894531 11.66870117 C-20.66753307 7.29920259 -19.10522996 4.84468424 -16.0168457 1.78149414 C-11.25740501 -0.85045706 -5.30279395 0.00807122 0 0 Z " fill="#E5EFF6" transform="translate(199.8125,89.4375)"/>
<path d="M0 0 C0 1.98 0 3.96 0 6 C-0.66 6 -1.32 6 -2 6 C-2.268125 6.598125 -2.53625 7.19625 -2.8125 7.8125 C-3.99308761 9.98726664 -5.26816512 11.26816512 -7 13 C-7.33 13.99 -7.66 14.98 -8 16 C-7.4225 16.2475 -6.845 16.495 -6.25 16.75 C-3.53776451 18.2567975 -1.88248076 19.51243613 0 22 C0.25 25.75 0.25 25.75 0 29 C-4.32504836 27.34136495 -7.09418825 24.128959 -10.25 20.875 C-10.80429688 20.31167969 -11.35859375 19.74835938 -11.9296875 19.16796875 C-13.29104485 17.78313972 -14.64614859 16.39216796 -16 15 C-14.87994369 11.63983107 -13.62788203 10.30935087 -11 8 C-10.34 8 -9.68 8 -9 8 C-8.67 7.01 -8.34 6.02 -8 5 C-7.34 5 -6.68 5 -6 5 C-5.67 4.01 -5.34 3.02 -5 2 C-1.63157895 0 -1.63157895 0 0 0 Z " fill="#133C61" transform="translate(173,97)"/>
<path d="M0 0 C3.125 -0.4375 3.125 -0.4375 7 0 C8.80115348 1.6528232 10.14127704 3.37156235 11.54296875 5.37109375 C13.27907327 7.31199344 14.46655636 7.61482977 17 8 C17.2475 7.4225 17.495 6.845 17.75 6.25 C19.2567975 3.53776451 20.51243613 1.88248076 23 0 C26.75 -0.25 26.75 -0.25 30 0 C28.50632911 4.72995781 28.50632911 4.72995781 26.125 6 C25.42375 6.33 24.7225 6.66 24 7 C22.62131719 8.62935241 21.28725907 10.29749607 20 12 C18.5625 13.875 18.5625 13.875 17 15 C11.71100409 14.85933522 9.12104559 11.6545811 5.6875 8.0625 C5.13771484 7.51142578 4.58792969 6.96035156 4.02148438 6.39257812 C0 2.28117236 0 2.28117236 0 0 Z " fill="#174066" transform="translate(185,138)"/>
<path d="M0 0 C4.22694994 1.35498047 6.31099937 3.10112865 9.125 6.5 C11.37974094 9.20217981 13.04750329 11.03166886 16 13 C16 15 16 15 14.125 17.125 C12 19 12 19 10 19 C9.67 19.99 9.34 20.98 9 22 C7.34997172 23.35386936 5.6825613 24.68678142 4 26 C3.34 26.99 2.68 27.98 2 29 C1.34 29 0.68 29 0 29 C0 26.69 0 24.38 0 22 C0.66 22 1.32 22 2 22 C2.28875 21.38125 2.5775 20.7625 2.875 20.125 C4 18 4 18 6 16 C5.70710381 12.19234949 4.76929533 10.52848704 2 8 C2 7.34 2 6.68 2 6 C1.34 6 0.68 6 0 6 C0 4.02 0 2.04 0 0 Z " fill="#194065" transform="translate(227,97)"/>
<path d="M0 0 C4.09639461 2.76506636 7.06970534 6.06503289 10 10 C10 10.99 10 11.98 10 13 C7.875 13.375 7.875 13.375 5 13 C3.5078125 11.62890625 3.5078125 11.62890625 2 9.9375 C-0.25322718 7.37283108 -0.25322718 7.37283108 -3.5625 6.8125 C-6.22082761 7.93786276 -6.22082761 7.93786276 -8.5 10.5625 C-11 13 -11 13 -13.8125 13.3125 C-14.534375 13.209375 -15.25625 13.10625 -16 13 C-15.1875 10.0625 -15.1875 10.0625 -14 7 C-13.01 6.67 -12.02 6.34 -11 6 C-10.67 5.01 -10.34 4.02 -10 3 C-9.34 3 -8.68 3 -8 3 C-7.67 2.01 -7.34 1.02 -7 0 C-4.22339666 -1.38830167 -2.95033814 -0.89196269 0 0 Z " fill="#133A5F" transform="translate(203,71)"/>
<path d="M0 0 C6.6 0 13.2 0 20 0 C20 1.32 20 2.64 20 4 C17.36 4 14.72 4 12 4 C12 10.6 12 17.2 12 24 C10.68 24 9.36 24 8 24 C8 17.4 8 10.8 8 4 C5.36 4 2.72 4 0 4 C0 2.68 0 1.36 0 0 Z " fill="#0C345A" transform="translate(190,99)"/>
<path d="M0 0 C6.15234375 -0.09765625 6.15234375 -0.09765625 8 0 C9 1 9 1 9.125 4.4375 C9 8 9 8 8 10 C6.35 10 4.7 10 3 10 C3 11.65 3 13.3 3 15 C2.01 15 1.02 15 0 15 C0 10.05 0 5.1 0 0 Z " fill="#318CC4" transform="translate(236,162)"/>
<path d="M0 0 C6.15234375 -0.09765625 6.15234375 -0.09765625 8 0 C9 1 9 1 9.1875 4.4375 C9 8 9 8 7 10 C5.68 10 4.36 10 3 10 C3 11.32 3 12.64 3 14 C2.01 14 1.02 14 0 14 C0 9.38 0 4.76 0 0 Z " fill="#2A88C2" transform="translate(248,162)"/>
<path d="M0 0 C1.32 0 2.64 0 4 0 C4.67305018 1.60149886 5.33822227 3.20631029 6 4.8125 C6.37125 5.70582031 6.7425 6.59914062 7.125 7.51953125 C8 10 8 10 8 13 C7.01 13 6.02 13 5 13 C5 12.01 5 11.02 5 10 C3.02 10 1.04 10 -1 10 C-1 10.99 -1 11.98 -1 13 C-1.99 13 -2.98 13 -4 13 C-3.71517632 11.58194169 -3.42181856 10.16559621 -3.125 8.75 C-2.96257812 7.96109375 -2.80015625 7.1721875 -2.6328125 6.359375 C-2.00849925 4.03168856 -1.15161458 2.10968048 0 0 Z " fill="#1E81BF" transform="translate(226,159)"/>
<path d="M0 0 C3.0625 0.1875 3.0625 0.1875 5.0625 2.1875 C5.0625 3.5075 5.0625 4.8275 5.0625 6.1875 C3.0825 6.1875 1.1025 6.1875 -0.9375 6.1875 C-0.9375 6.8475 -0.9375 7.5075 -0.9375 8.1875 C0.7125 8.1875 2.3625 8.1875 4.0625 8.1875 C4.0625 8.8475 4.0625 9.5075 4.0625 10.1875 C-1.3195598 10.54630399 -1.3195598 10.54630399 -3.875 9.0625 C-5.47693488 6.23555609 -4.73334319 4.23823223 -3.9375 1.1875 C-2.9375 0.1875 -2.9375 0.1875 0 0 Z " fill="#3B92C7" transform="translate(148.9375,161.8125)"/>
<path d="M0 0 C2.9375 0.1875 2.9375 0.1875 3.9375 1.1875 C3.97813832 2.85367115 3.980221 4.52138095 3.9375 6.1875 C2.2875 6.5175 0.6375 6.8475 -1.0625 7.1875 C0.5875 7.5175 2.2375 7.8475 3.9375 8.1875 C3.9375 8.8475 3.9375 9.5075 3.9375 10.1875 C0.5625 10.3125 0.5625 10.3125 -3.0625 10.1875 C-5.0625 8.1875 -5.0625 8.1875 -5.3125 5.1875 C-4.96470552 1.01396625 -4.18057901 0.25595382 0 0 Z " fill="#197FBD" transform="translate(179.0625,161.8125)"/>
<path d="M0 0 C2.875 -0.125 2.875 -0.125 6 0 C8 2 8 2 8.1953125 3.9453125 C8.13020833 5.96354167 8.06510417 7.98177083 8 10 C5.03 10 2.06 10 -1 10 C-1.042721 8.33388095 -1.04063832 6.66617115 -1 5 C0 4 0 4 2.5625 3.9375 C3.7690625 3.9684375 3.7690625 3.9684375 5 4 C5 3.34 5 2.68 5 2 C3.35 2 1.7 2 0 2 C0 1.34 0 0.68 0 0 Z " fill="#4798CB" transform="translate(195,162)"/>
<path d="M0 0 C0 4.62 0 9.24 0 14 C-2.69652403 12.38208558 -5.38348441 10.74434373 -8 9 C-7.53918323 4.85264908 -4.48412936 0 0 0 Z " fill="#DCE6EE" transform="translate(173,104)"/>
<path d="M0 0 C5.37142857 2.68571429 5.37142857 2.68571429 7 5 C6.9142619 8.34378596 6.21705287 9.7409369 4.0625 12.3125 C2 14 2 14 0 14 C0 9.38 0 4.76 0 0 Z " fill="#CFDEEA" transform="translate(227,104)"/>
<path d="M0 0 C2.8382362 0.21832586 4.53422087 0.64665032 6.8125 2.375 C8 4 8 4 8 7 C4.04 7 0.08 7 -4 7 C-2 2 -2 2 0 0 Z " fill="#C4D3DF" transform="translate(198,77)"/>
<path d="M0 0 C0 3 0 3 -2.3359375 5.59375 C-3.34159469 6.57014203 -4.35497561 7.53862701 -5.375 8.5 C-8.20316005 11.20613284 -10.81309723 13.71964585 -13 17 C-13.66 15.68 -14.32 14.36 -15 13 C-13.37660195 11.29115995 -11.70680947 9.62553283 -10 8 C-9.34 8 -8.68 8 -8 8 C-7.67 7.01 -7.34 6.02 -7 5 C-6.34 5 -5.68 5 -5 5 C-4.67 4.01 -4.34 3.02 -4 2 C-1.9375 0.8125 -1.9375 0.8125 0 0 Z " fill="#325576" transform="translate(172,97)"/>
<path d="M0 0 C3.3 0 6.6 0 10 0 C10 0.66 10 1.32 10 2 C9.01 2 8.02 2 7 2 C7 5.63 7 9.26 7 13 C6.01 13 5.02 13 4 13 C4 9.37 4 5.74 4 2 C2.68 2 1.36 2 0 2 C0 1.34 0 0.68 0 0 Z " fill="#2284C0" transform="translate(133,159)"/>
<path d="M0 0 C2.31 0 4.62 0 7 0 C7 0.66 7 1.32 7 2 C5.68 2.33 4.36 2.66 3 3 C4.32 3.66 5.64 4.32 7 5 C6.67 6.65 6.34 8.3 6 10 C4.02 10 2.04 10 0 10 C0 9.34 0 8.68 0 8 C1.32 8 2.64 8 4 8 C4 7.34 4 6.68 4 6 C1.525 5.01 1.525 5.01 -1 4 C-0.67 2.68 -0.34 1.36 0 0 Z " fill="#2585C1" transform="translate(156,162)"/>
<path d="M0 0 C1.98 0 3.96 0 6 0 C6 0.66 6 1.32 6 2 C5.01 2.33 4.02 2.66 3 3 C4.32 3.99 5.64 4.98 7 6 C6.34 7.32 5.68 8.64 5 10 C3.02 10 1.04 10 -1 10 C-1 9.34 -1 8.68 -1 8 C0.32 7.67 1.64 7.34 3 7 C1.68 6.01 0.36 5.02 -1 4 C-0.67 2.68 -0.34 1.36 0 0 Z " fill="#1E81BF" transform="translate(260,162)"/>
<path d="M0 0 C1.98 0 3.96 0 6 0 C6 0.66 6 1.32 6 2 C5.01 2.33 4.02 2.66 3 3 C3.99 3.66 4.98 4.32 6 5 C5.67 6.65 5.34 8.3 5 10 C3.02 10 1.04 10 -1 10 C-1 9.34 -1 8.68 -1 8 C0.32 8 1.64 8 3 8 C3 7.34 3 6.68 3 6 C1.68 5.67 0.36 5.34 -1 5 C-0.67 3.35 -0.34 1.7 0 0 Z " fill="#1E81BF" transform="translate(166,162)"/>
<path d="M0 0 C0.66 0 1.32 0 2 0 C2 0.66 2 1.32 2 2 C2.99 2 3.98 2 5 2 C5 2.66 5 3.32 5 4 C4.01 4 3.02 4 2 4 C2 5.98 2 7.96 2 10 C2.99 10 3.98 10 5 10 C5 10.66 5 11.32 5 12 C3.33388095 12.042721 1.66617115 12.04063832 0 12 C-1.58272601 10.41727399 -1.34735747 8.61965997 -1.5625 6.4375 C-1.64628906 5.61121094 -1.73007813 4.78492188 -1.81640625 3.93359375 C-1.87699219 3.29550781 -1.93757812 2.65742188 -2 2 C-1.34 2 -0.68 2 0 2 C0 1.34 0 0.68 0 0 Z " fill="#1E81BE" transform="translate(216,160)"/>
<path d="M0 0 C3.96 0 7.92 0 12 0 C10 4 10 4 8 6 C6.125 5.9375 6.125 5.9375 4 5 C1.75 2.4375 1.75 2.4375 0 0 Z " fill="#E7EFF6" transform="translate(194,139)"/>
<path d="M0 0 C1.32 0 2.64 0 4 0 C4.66 1.98 5.32 3.96 6 6 C5.34 6 4.68 6 4 6 C4 6.66 4 7.32 4 8 C2.68 8 1.36 8 0 8 C-1.125 6.25 -1.125 6.25 -2 4 C-1.125 1.75 -1.125 1.75 0 0 Z " fill="#2485C0" transform="translate(226,159)"/>
<path d="M0 0 C1.32 0.33 2.64 0.66 4 1 C0.04 4.96 -3.92 8.92 -8 13 C-8.33 12.34 -8.66 11.68 -9 11 C-7.6875 8.375 -7.6875 8.375 -6 6 C-5.34 6 -4.68 6 -4 6 C-3.67 5.01 -3.34 4.02 -3 3 C-2.34 3 -1.68 3 -1 3 C-0.67 2.01 -0.34 1.02 0 0 Z " fill="#2B4E70" transform="translate(196,71)"/>
<path d="M0 0 C0.78375 0.04125 1.5675 0.0825 2.375 0.125 C2.375 0.785 2.375 1.445 2.375 2.125 C1.055 2.125 -0.265 2.125 -1.625 2.125 C-1.625 4.105 -1.625 6.085 -1.625 8.125 C-0.305 8.125 1.015 8.125 2.375 8.125 C2.375 8.785 2.375 9.445 2.375 10.125 C0 10.25 0 10.25 -2.625 10.125 C-4.625 8.125 -4.625 8.125 -4.875 5.125 C-4.55416156 1.2749387 -3.94115238 0.18767392 0 0 Z " fill="#1079BB" transform="translate(209.625,161.875)"/>
<path d="M0 0 C0.99 0.33 1.98 0.66 3 1 C3.33 3.64 3.66 6.28 4 9 C3.34 9 2.68 9 2 9 C2 10.65 2 12.3 2 14 C1.34 14 0.68 14 0 14 C0 9.38 0 4.76 0 0 Z " fill="#187EBD" transform="translate(248,162)"/>
<path d="M0 0 C0.99 0.33 1.98 0.66 3 1 C3.33 3.64 3.66 6.28 4 9 C3.34 9 2.68 9 2 9 C2 10.65 2 12.3 2 14 C1.34 14 0.68 14 0 14 C0 9.38 0 4.76 0 0 Z " fill="#147CBC" transform="translate(236,162)"/>
<path d="M0 0 C0 0.66 0 1.32 0 2 C-1.32 2 -2.64 2 -4 2 C-4.33 2.66 -4.66 3.32 -5 4 C-5.66 4 -6.32 4 -7 4 C-7 3.34 -7 2.68 -7 2 C-8.65 2 -10.3 2 -12 2 C-12 1.34 -12 0.68 -12 0 C-7.224647 -1.68541871 -4.55270882 -2.48329572 0 0 Z " fill="#D8EAF6" transform="translate(160,168)"/>
<path d="M0 0 C1.98 0 3.96 0 6 0 C6 0.66 6 1.32 6 2 C4.68 2.33 3.36 2.66 2 3 C2 5.31 2 7.62 2 10 C1.34 10 0.68 10 0 10 C0 6.7 0 3.4 0 0 Z " fill="#137BBC" transform="translate(186,162)"/>
<path d="M0 0 C0.99 0.33 1.98 0.66 3 1 C3 2.65 3 4.3 3 6 C1.02 6 -0.96 6 -3 6 C-2.625 3.5625 -2.625 3.5625 -2 1 C-1.34 0.67 -0.68 0.34 0 0 Z " fill="#5BA4D1" transform="translate(180,162)"/>
<path d="M0 0 C0.99 0 1.98 0 3 0 C3 1.98 3 3.96 3 6 C1.02 6 -0.96 6 -3 6 C-1.125 1.125 -1.125 1.125 0 0 Z " fill="#134975" transform="translate(219,127)"/>
<path d="M0 0 C2.62187494 1.04874998 3.79371361 1.64931313 5.25 4.125 C5.4975 4.74375 5.745 5.3625 6 6 C4.02 6 2.04 6 0 6 C0 4.02 0 2.04 0 0 Z " fill="#094270" transform="translate(178,127)"/>
<path d="M0 0 C0.66 0 1.32 0 2 0 C2 4.62 2 9.24 2 14 C1.01 13.34 0.02 12.68 -1 12 C-0.34 12 0.32 12 1 12 C1 9.03 1 6.06 1 3 C-0.65 3.66 -2.3 4.32 -4 5 C-2.71937515 3.2925002 -1.38232443 1.62626404 0 0 Z " fill="#AEC8DB" transform="translate(171,104)"/>
<path d="M0 0 C0.33 1.32 0.66 2.64 1 4 C2.32 4.33 3.64 4.66 5 5 C5 5.66 5 6.32 5 7 C3.68 7 2.36 7 1 7 C0.67 7.66 0.34 8.32 0 9 C-1.125 6.1875 -1.125 6.1875 -2 3 C-1.34 2.01 -0.68 1.02 0 0 Z " fill="#D8EAF6" transform="translate(164,163)"/>
<path d="M0 0 C2.02054804 1.64169528 4.02043058 3.30911778 6 5 C6 5.33 6 5.66 6 6 C4.35 6 2.7 6 1 6 C0.67 6.66 0.34 7.32 0 8 C-0.38063221 5.6739143 -0.71269945 3.33944736 -1 1 C-0.67 0.67 -0.34 0.34 0 0 Z " fill="#D8EAF6" transform="translate(258,164)"/>
<path d="M0 0 C1.9375 0.8125 1.9375 0.8125 4 2 C4.33 2.99 4.66 3.98 5 5 C2.36 5 -0.28 5 -3 5 C-2.01 3.35 -1.02 1.7 0 0 Z " fill="#EDF5FA" transform="translate(200,78)"/>
<path d="M0 0 C0.66 0 1.32 0 2 0 C1.67 1.32 1.34 2.64 1 4 C2.32 3.67 3.64 3.34 5 3 C4.67 3.99 4.34 4.98 4 6 C2.35 6 0.7 6 -1 6 C-1.042721 4.33388095 -1.04063832 2.66617115 -1 1 C-0.67 0.67 -0.34 0.34 0 0 Z " fill="#1B80BE" transform="translate(195,166)"/>
<path d="M0 0 C1.65 0.33 3.3 0.66 5 1 C5 1.66 5 2.32 5 3 C4.34 3 3.68 3 3 3 C3 3.66 3 4.32 3 5 C1.68 5 0.36 5 -1 5 C-0.67 3.35 -0.34 1.7 0 0 Z " fill="#79B5DA" transform="translate(227,162)"/>
<path d="M0 0 C-0.66 1.98 -1.32 3.96 -2 6 C-4 4 -6 2 -8 0 C-2.25 -1.125 -2.25 -1.125 0 0 Z " fill="#DEEDF7" transform="translate(175,164)"/>
<path d="M0 0 C1.65 0 3.3 0 5 0 C5 1.98 5 3.96 5 6 C3.2925002 4.71937515 1.62626404 3.38232443 0 2 C0 1.34 0 0.68 0 0 Z " fill="#0D3A62" transform="translate(216,90)"/>
<path d="M0 0 C1.65 0 3.3 0 5 0 C5 0.66 5 1.32 5 2 C3.68 2 2.36 2 1 2 C1 3.65 1 5.3 1 7 C0.01 6.01 -0.98 5.02 -2 4 C-1.34 2.68 -0.68 1.36 0 0 Z " fill="#2082BF" transform="translate(207,162)"/>
<path d="M0 0 C1.65 0 3.3 0 5 0 C4.1875 1.9375 4.1875 1.9375 3 4 C2.01 4.33 1.02 4.66 0 5 C0 3.35 0 1.7 0 0 Z " fill="#0C3961" transform="translate(179,90)"/>
<path d="M0 0 C2.64 0.33 5.28 0.66 8 1 C8 1.66 8 2.32 8 3 C5.69 3 3.38 3 1 3 C0.67 2.01 0.34 1.02 0 0 Z " fill="#2585C1" transform="translate(175,169)"/>
<path d="M0 0 C0.99 0 1.98 0 3 0 C3 1.98 3 3.96 3 6 C2.01 6 1.02 6 0 6 C0 4.02 0 2.04 0 0 Z " fill="#E1EFF9" transform="translate(251,164)"/>
<path d="M0 0 C0.99 0 1.98 0 3 0 C3 1.98 3 3.96 3 6 C2.01 6 1.02 6 0 6 C0 4.02 0 2.04 0 0 Z " fill="#E1EFF9" transform="translate(239,164)"/>
</svg>
